<svg xmlns="http://www.w3.org/2000/svg" xmlns:xlink="http://www.w3.org/1999/xlink" width="500" zoomAndPan="magnify" viewBox="0 0 375 374.999991" height="500" preserveAspectRatio="xMidYMid meet" version="1.0"><defs><g/><clipPath id="a2c0c02cb7"><path d="M 125.074219 118.621094 L 375 118.621094 L 375 126.617188 L 125.074219 126.617188 Z M 373.289062 126.617188 L 375 126.617188 L 375 366.832031 L 373.289062 366.832031 Z M 125.074219 126.617188 L 133.070312 126.617188 L 133.070312 366.832031 L 125.074219 366.832031 Z M 125.074219 366.832031 L 375 366.832031 L 375 375 L 125.074219 375 Z M 125.074219 366.832031 " clip-rule="nonzero"/></clipPath></defs><g clip-path="url(#a2c0c02cb7)"><path fill="#ffffff" d="M 125.074219 118.621094 L 381.964844 118.621094 L 381.964844 375.511719 L 125.074219 375.511719 Z M 125.074219 118.621094 " fill-opacity="1" fill-rule="nonzero"/></g><g fill="#ffc1b2" fill-opacity="0.302"><g transform="translate(82.318063, 200.213193)"><g><path d="M 20.609375 -40.921875 C 20.609375 -41.167969 20.460938 -41.414062 20.214844 -41.609375 C 19.921875 -41.808594 19.628906 -41.90625 19.332031 -41.90625 L 19.039062 -41.90625 C 18.941406 -41.855469 18.84375 -41.808594 18.746094 -41.757812 C 18.5 -41.609375 17.910156 -40.628906 17.027344 -38.8125 C 16.144531 -36.949219 15.164062 -34.839844 14.082031 -32.386719 C 13.492188 -31.0625 12.90625 -29.734375 12.367188 -28.410156 C 11.777344 -27.039062 11.238281 -25.710938 10.746094 -24.484375 C 10.058594 -22.71875 9.46875 -21.148438 8.929688 -19.773438 C 8.339844 -18.402344 8.046875 -17.617188 7.949219 -17.46875 C 7.800781 -17.175781 7.410156 -17.027344 6.820312 -16.929688 C 6.230469 -16.78125 5.25 -16.683594 3.972656 -16.683594 C 2.945312 -16.585938 2.109375 -16.535156 1.421875 -16.4375 C 0.734375 -16.339844 0.390625 -16.191406 0.390625 -16.09375 C 0.390625 -15.308594 1.128906 -14.722656 2.601562 -14.277344 C 4.074219 -13.789062 5.398438 -13.542969 6.671875 -13.542969 C 6.574219 -13.050781 6.429688 -12.265625 6.132812 -11.140625 C 5.839844 -9.960938 5.542969 -8.832031 5.300781 -7.753906 C 4.859375 -5.9375 4.464844 -4.023438 4.121094 -2.0625 C 3.777344 -0.0507812 3.53125 1.667969 3.386719 3.089844 C 3.289062 3.875 3.289062 4.5625 3.289062 5.054688 C 3.238281 5.542969 3.289062 5.886719 3.386719 5.988281 C 3.433594 6.085938 3.484375 6.132812 3.582031 6.132812 C 3.777344 6.132812 4.121094 5.644531 4.613281 4.613281 C 5.203125 3.289062 6.183594 0.492188 7.65625 -3.828125 C 8.441406 -6.183594 9.175781 -8.292969 9.863281 -10.109375 C 10.550781 -11.875 10.941406 -12.855469 11.089844 -13.003906 C 11.238281 -13.101562 11.582031 -13.199219 12.121094 -13.347656 C 12.660156 -13.445312 13.25 -13.542969 13.886719 -13.640625 C 15.210938 -13.789062 16.78125 -14.230469 18.644531 -14.917969 C 20.414062 -15.605469 22.226562 -16.4375 24.042969 -17.519531 C 25.222656 -18.203125 26.644531 -19.332031 28.363281 -20.902344 C 30.03125 -22.425781 31.601562 -23.996094 32.972656 -25.566406 C 33.710938 -26.351562 34.347656 -27.136719 34.9375 -27.921875 C 35.527344 -28.65625 35.917969 -29.292969 36.214844 -29.882812 C 37.144531 -31.847656 37.636719 -33.5625 37.636719 -34.988281 C 37.636719 -35.183594 37.585938 -35.429688 37.585938 -35.671875 C 37.390625 -37.195312 36.605469 -38.324219 35.132812 -39.109375 C 33.316406 -39.992188 31.109375 -39.84375 28.558594 -38.667969 C 25.957031 -37.488281 22.964844 -35.230469 19.578125 -31.992188 C 17.617188 -30.078125 16.585938 -29.292969 16.535156 -29.589844 C 16.4375 -29.882812 17.175781 -31.847656 18.695312 -35.574219 C 19.1875 -36.851562 19.675781 -38.027344 20.070312 -39.109375 C 20.414062 -40.136719 20.609375 -40.726562 20.609375 -40.921875 Z M 30.765625 -36.066406 C 31.207031 -36.164062 31.601562 -36.261719 31.945312 -36.359375 C 32.238281 -36.457031 32.53125 -36.507812 32.828125 -36.507812 L 32.972656 -36.507812 C 33.417969 -36.507812 33.757812 -36.359375 33.957031 -36.113281 C 34.152344 -35.769531 34.25 -35.28125 34.25 -34.644531 C 34.25 -33.859375 34.003906 -32.972656 33.515625 -31.992188 C 33.023438 -31.011719 32.386719 -30.03125 31.550781 -28.949219 C 30.03125 -26.988281 28.066406 -25.125 25.710938 -23.257812 C 23.308594 -21.394531 20.902344 -19.972656 18.449219 -18.988281 C 16.976562 -18.402344 15.800781 -17.960938 14.964844 -17.761719 C 14.476562 -17.664062 14.132812 -17.617188 13.9375 -17.617188 C 13.691406 -17.617188 13.542969 -17.617188 13.445312 -17.714844 C 13.394531 -17.761719 13.394531 -17.8125 13.394531 -17.910156 C 13.394531 -18.15625 13.542969 -18.597656 13.835938 -19.285156 C 14.230469 -20.167969 14.820312 -21.199219 15.554688 -22.375 C 15.949219 -22.964844 16.339844 -23.601562 16.78125 -24.238281 C 17.175781 -24.828125 17.617188 -25.46875 18.105469 -26.054688 C 19.972656 -28.410156 22.128906 -30.570312 24.484375 -32.484375 C 26.839844 -34.347656 28.949219 -35.527344 30.765625 -36.066406 Z M 30.765625 -36.066406 "/></g></g></g><g fill="#ffc1b2" fill-opacity="0.502"><g transform="translate(83.647837, 200.777641)"><g><path d="M 20.609375 -40.921875 C 20.609375 -41.167969 20.460938 -41.414062 20.214844 -41.609375 C 19.921875 -41.808594 19.628906 -41.90625 19.332031 -41.90625 L 19.039062 -41.90625 C 18.941406 -41.855469 18.84375 -41.808594 18.746094 -41.757812 C 18.5 -41.609375 17.910156 -40.628906 17.027344 -38.8125 C 16.144531 -36.949219 15.164062 -34.839844 14.082031 -32.386719 C 13.492188 -31.0625 12.90625 -29.734375 12.367188 -28.410156 C 11.777344 -27.039062 11.238281 -25.710938 10.746094 -24.484375 C 10.058594 -22.71875 9.46875 -21.148438 8.929688 -19.773438 C 8.339844 -18.402344 8.046875 -17.617188 7.949219 -17.46875 C 7.800781 -17.175781 7.410156 -17.027344 6.820312 -16.929688 C 6.230469 -16.78125 5.25 -16.683594 3.972656 -16.683594 C 2.945312 -16.585938 2.109375 -16.535156 1.421875 -16.4375 C 0.734375 -16.339844 0.390625 -16.191406 0.390625 -16.09375 C 0.390625 -15.308594 1.128906 -14.722656 2.601562 -14.277344 C 4.074219 -13.789062 5.398438 -13.542969 6.671875 -13.542969 C 6.574219 -13.050781 6.429688 -12.265625 6.132812 -11.140625 C 5.839844 -9.960938 5.542969 -8.832031 5.300781 -7.753906 C 4.859375 -5.9375 4.464844 -4.023438 4.121094 -2.0625 C 3.777344 -0.0507812 3.53125 1.667969 3.386719 3.089844 C 3.289062 3.875 3.289062 4.5625 3.289062 5.054688 C 3.238281 5.542969 3.289062 5.886719 3.386719 5.988281 C 3.433594 6.085938 3.484375 6.132812 3.582031 6.132812 C 3.777344 6.132812 4.121094 5.644531 4.613281 4.613281 C 5.203125 3.289062 6.183594 0.492188 7.65625 -3.828125 C 8.441406 -6.183594 9.175781 -8.292969 9.863281 -10.109375 C 10.550781 -11.875 10.941406 -12.855469 11.089844 -13.003906 C 11.238281 -13.101562 11.582031 -13.199219 12.121094 -13.347656 C 12.660156 -13.445312 13.25 -13.542969 13.886719 -13.640625 C 15.210938 -13.789062 16.78125 -14.230469 18.644531 -14.917969 C 20.414062 -15.605469 22.226562 -16.4375 24.042969 -17.519531 C 25.222656 -18.203125 26.644531 -19.332031 28.363281 -20.902344 C 30.03125 -22.425781 31.601562 -23.996094 32.972656 -25.566406 C 33.710938 -26.351562 34.347656 -27.136719 34.9375 -27.921875 C 35.527344 -28.65625 35.917969 -29.292969 36.214844 -29.882812 C 37.144531 -31.847656 37.636719 -33.5625 37.636719 -34.988281 C 37.636719 -35.183594 37.585938 -35.429688 37.585938 -35.671875 C 37.390625 -37.195312 36.605469 -38.324219 35.132812 -39.109375 C 33.316406 -39.992188 31.109375 -39.84375 28.558594 -38.667969 C 25.957031 -37.488281 22.964844 -35.230469 19.578125 -31.992188 C 17.617188 -30.078125 16.585938 -29.292969 16.535156 -29.589844 C 16.4375 -29.882812 17.175781 -31.847656 18.695312 -35.574219 C 19.1875 -36.851562 19.675781 -38.027344 20.070312 -39.109375 C 20.414062 -40.136719 20.609375 -40.726562 20.609375 -40.921875 Z M 30.765625 -36.066406 C 31.207031 -36.164062 31.601562 -36.261719 31.945312 -36.359375 C 32.238281 -36.457031 32.53125 -36.507812 32.828125 -36.507812 L 32.972656 -36.507812 C 33.417969 -36.507812 33.757812 -36.359375 33.957031 -36.113281 C 34.152344 -35.769531 34.25 -35.28125 34.25 -34.644531 C 34.25 -33.859375 34.003906 -32.972656 33.515625 -31.992188 C 33.023438 -31.011719 32.386719 -30.03125 31.550781 -28.949219 C 30.03125 -26.988281 28.066406 -25.125 25.710938 -23.257812 C 23.308594 -21.394531 20.902344 -19.972656 18.449219 -18.988281 C 16.976562 -18.402344 15.800781 -17.960938 14.964844 -17.761719 C 14.476562 -17.664062 14.132812 -17.617188 13.9375 -17.617188 C 13.691406 -17.617188 13.542969 -17.617188 13.445312 -17.714844 C 13.394531 -17.761719 13.394531 -17.8125 13.394531 -17.910156 C 13.394531 -18.15625 13.542969 -18.597656 13.835938 -19.285156 C 14.230469 -20.167969 14.820312 -21.199219 15.554688 -22.375 C 15.949219 -22.964844 16.339844 -23.601562 16.78125 -24.238281 C 17.175781 -24.828125 17.617188 -25.46875 18.105469 -26.054688 C 19.972656 -28.410156 22.128906 -30.570312 24.484375 -32.484375 C 26.839844 -34.347656 28.949219 -35.527344 30.765625 -36.066406 Z M 30.765625 -36.066406 "/></g></g></g><g fill="#ffde59" fill-opacity="1"><g transform="translate(84.977611, 201.342105)"><g><path d="M 20.609375 -40.921875 C 20.609375 -41.167969 20.460938 -41.414062 20.214844 -41.609375 C 19.921875 -41.808594 19.628906 -41.90625 19.332031 -41.90625 L 19.039062 -41.90625 C 18.941406 -41.855469 18.84375 -41.808594 18.746094 -41.757812 C 18.5 -41.609375 17.910156 -40.628906 17.027344 -38.8125 C 16.144531 -36.949219 15.164062 -34.839844 14.082031 -32.386719 C 13.492188 -31.0625 12.90625 -29.734375 12.367188 -28.410156 C 11.777344 -27.039062 11.238281 -25.710938 10.746094 -24.484375 C 10.058594 -22.71875 9.46875 -21.148438 8.929688 -19.773438 C 8.339844 -18.402344 8.046875 -17.617188 7.949219 -17.46875 C 7.800781 -17.175781 7.410156 -17.027344 6.820312 -16.929688 C 6.230469 -16.78125 5.25 -16.683594 3.972656 -16.683594 C 2.945312 -16.585938 2.109375 -16.535156 1.421875 -16.4375 C 0.734375 -16.339844 0.390625 -16.191406 0.390625 -16.09375 C 0.390625 -15.308594 1.128906 -14.722656 2.601562 -14.277344 C 4.074219 -13.789062 5.398438 -13.542969 6.671875 -13.542969 C 6.574219 -13.050781 6.429688 -12.265625 6.132812 -11.140625 C 5.839844 -9.960938 5.542969 -8.832031 5.300781 -7.753906 C 4.859375 -5.9375 4.464844 -4.023438 4.121094 -2.0625 C 3.777344 -0.0507812 3.53125 1.667969 3.386719 3.089844 C 3.289062 3.875 3.289062 4.5625 3.289062 5.054688 C 3.238281 5.542969 3.289062 5.886719 3.386719 5.988281 C 3.433594 6.085938 3.484375 6.132812 3.582031 6.132812 C 3.777344 6.132812 4.121094 5.644531 4.613281 4.613281 C 5.203125 3.289062 6.183594 0.492188 7.65625 -3.828125 C 8.441406 -6.183594 9.175781 -8.292969 9.863281 -10.109375 C 10.550781 -11.875 10.941406 -12.855469 11.089844 -13.003906 C 11.238281 -13.101562 11.582031 -13.199219 12.121094 -13.347656 C 12.660156 -13.445312 13.25 -13.542969 13.886719 -13.640625 C 15.210938 -13.789062 16.78125 -14.230469 18.644531 -14.917969 C 20.414062 -15.605469 22.226562 -16.4375 24.042969 -17.519531 C 25.222656 -18.203125 26.644531 -19.332031 28.363281 -20.902344 C 30.03125 -22.425781 31.601562 -23.996094 32.972656 -25.566406 C 33.710938 -26.351562 34.347656 -27.136719 34.9375 -27.921875 C 35.527344 -28.65625 35.917969 -29.292969 36.214844 -29.882812 C 37.144531 -31.847656 37.636719 -33.5625 37.636719 -34.988281 C 37.636719 -35.183594 37.585938 -35.429688 37.585938 -35.671875 C 37.390625 -37.195312 36.605469 -38.324219 35.132812 -39.109375 C 33.316406 -39.992188 31.109375 -39.84375 28.558594 -38.667969 C 25.957031 -37.488281 22.964844 -35.230469 19.578125 -31.992188 C 17.617188 -30.078125 16.585938 -29.292969 16.535156 -29.589844 C 16.4375 -29.882812 17.175781 -31.847656 18.695312 -35.574219 C 19.1875 -36.851562 19.675781 -38.027344 20.070312 -39.109375 C 20.414062 -40.136719 20.609375 -40.726562 20.609375 -40.921875 Z M 30.765625 -36.066406 C 31.207031 -36.164062 31.601562 -36.261719 31.945312 -36.359375 C 32.238281 -36.457031 32.53125 -36.507812 32.828125 -36.507812 L 32.972656 -36.507812 C 33.417969 -36.507812 33.757812 -36.359375 33.957031 -36.113281 C 34.152344 -35.769531 34.25 -35.28125 34.25 -34.644531 C 34.25 -33.859375 34.003906 -32.972656 33.515625 -31.992188 C 33.023438 -31.011719 32.386719 -30.03125 31.550781 -28.949219 C 30.03125 -26.988281 28.066406 -25.125 25.710938 -23.257812 C 23.308594 -21.394531 20.902344 -19.972656 18.449219 -18.988281 C 16.976562 -18.402344 15.800781 -17.960938 14.964844 -17.761719 C 14.476562 -17.664062 14.132812 -17.617188 13.9375 -17.617188 C 13.691406 -17.617188 13.542969 -17.617188 13.445312 -17.714844 C 13.394531 -17.761719 13.394531 -17.8125 13.394531 -17.910156 C 13.394531 -18.15625 13.542969 -18.597656 13.835938 -19.285156 C 14.230469 -20.167969 14.820312 -21.199219 15.554688 -22.375 C 15.949219 -22.964844 16.339844 -23.601562 16.78125 -24.238281 C 17.175781 -24.828125 17.617188 -25.46875 18.105469 -26.054688 C 19.972656 -28.410156 22.128906 -30.570312 24.484375 -32.484375 C 26.839844 -34.347656 28.949219 -35.527344 30.765625 -36.066406 Z M 30.765625 -36.066406 "/></g></g></g><g fill="#ffc1b2" fill-opacity="0.302"><g transform="translate(115.474253, 200.213193)"><g><path d="M 17.566406 -32.828125 C 18.15625 -34.789062 18.449219 -36.164062 18.546875 -37 C 18.597656 -37.785156 18.402344 -38.175781 17.960938 -38.175781 L 17.761719 -38.175781 C 17.371094 -38.078125 16.488281 -36.753906 15.113281 -34.203125 C 13.738281 -31.648438 12.265625 -28.558594 10.695312 -24.976562 C 9.8125 -23.011719 8.929688 -21.050781 8.097656 -18.988281 C 7.214844 -16.929688 6.429688 -14.917969 5.691406 -12.953125 C 5.59375 -12.660156 5.300781 -12.316406 4.808594 -11.921875 C 4.316406 -11.480469 3.777344 -11.140625 3.238281 -10.84375 C 2.648438 -10.5 2.0625 -10.15625 1.472656 -9.765625 C 0.835938 -9.324219 0.390625 -8.980469 0.0976562 -8.734375 C -0.390625 -8.242188 -0.734375 -7.898438 -0.980469 -7.703125 C 0.148438 -7.851562 1.03125 -7.949219 1.621094 -8.046875 C 2.746094 -8.195312 3.582031 -8.292969 4.171875 -8.390625 C 4.074219 -7.753906 3.972656 -7.261719 3.972656 -6.96875 C 3.875 -6.574219 3.777344 -5.9375 3.632812 -5.101562 C 3.433594 -4.21875 3.289062 -3.433594 3.191406 -2.648438 C 2.992188 -1.863281 2.894531 -0.980469 2.796875 -0.0507812 C 2.699219 0.933594 2.648438 1.667969 2.648438 2.207031 C 2.648438 3.089844 2.699219 3.582031 2.796875 3.679688 C 2.847656 3.875 2.992188 3.777344 3.289062 3.484375 C 3.53125 3.238281 4.074219 2.207031 4.859375 0.34375 C 5.644531 -1.472656 7.015625 -4.757812 8.980469 -9.519531 C 9.078125 -9.8125 9.421875 -10.15625 9.910156 -10.597656 C 10.402344 -11.039062 11.039062 -11.480469 11.726562 -11.972656 C 12.757812 -12.660156 13.835938 -13.296875 14.917969 -13.886719 C 15.949219 -14.476562 16.632812 -14.722656 16.976562 -14.621094 C 17.371094 -14.425781 17.910156 -13.691406 18.597656 -12.414062 C 19.285156 -11.039062 20.167969 -8.980469 21.246094 -6.183594 C 22.328125 -3.191406 23.308594 -0.882812 24.191406 0.6875 C 24.976562 2.257812 25.910156 3.582031 26.9375 4.5625 C 27.578125 5.25 28.019531 5.59375 28.3125 5.59375 C 28.410156 5.59375 28.460938 5.59375 28.507812 5.496094 C 28.707031 5.203125 28.507812 4.417969 28.019531 3.042969 C 27.773438 2.550781 27.429688 1.667969 27.039062 0.34375 C 26.546875 -0.933594 26.152344 -2.257812 25.761719 -3.632812 C 24.878906 -6.378906 24.09375 -8.539062 23.40625 -10.15625 C 22.71875 -11.726562 21.886719 -13.152344 20.953125 -14.476562 C 20.558594 -14.964844 20.265625 -15.40625 20.070312 -15.847656 C 19.773438 -16.242188 19.675781 -16.535156 19.675781 -16.632812 C 19.675781 -16.734375 20.019531 -17.074219 20.757812 -17.664062 C 21.492188 -18.253906 22.375 -18.941406 23.40625 -19.726562 C 28.164062 -23.257812 31.550781 -26.496094 33.613281 -29.492188 C 34.789062 -31.207031 35.378906 -32.679688 35.378906 -33.859375 C 35.378906 -34.691406 35.035156 -35.378906 34.398438 -35.917969 C 33.316406 -36.851562 31.550781 -36.949219 29.148438 -36.214844 C 26.695312 -35.429688 23.898438 -33.957031 20.757812 -31.699219 C 19.675781 -30.914062 18.792969 -30.324219 18.007812 -29.835938 C 17.222656 -29.34375 16.78125 -29.097656 16.734375 -29.195312 C 16.632812 -29.195312 16.683594 -29.589844 16.878906 -30.324219 C 17.027344 -31.011719 17.273438 -31.847656 17.566406 -32.828125 Z M 21.933594 -29.835938 C 23.796875 -31.109375 25.566406 -32.1875 27.28125 -32.972656 C 28.949219 -33.757812 30.324219 -34.203125 31.304688 -34.300781 L 31.550781 -34.300781 C 31.847656 -34.300781 32.140625 -34.25 32.386719 -34.152344 C 32.582031 -34.003906 32.730469 -33.757812 32.777344 -33.464844 C 32.777344 -32.53125 31.601562 -30.960938 29.292969 -28.707031 C 26.9375 -26.449219 23.898438 -23.945312 20.117188 -21.199219 C 19.089844 -20.414062 18.15625 -19.726562 17.320312 -19.234375 C 16.535156 -18.695312 16.046875 -18.449219 15.847656 -18.449219 L 15.800781 -18.449219 C 14.574219 -18.746094 13.738281 -18.84375 13.25 -18.644531 C 12.757812 -18.449219 12.464844 -18.449219 12.464844 -18.746094 L 12.464844 -18.792969 C 12.464844 -19.039062 12.5625 -19.429688 12.808594 -19.972656 C 13.050781 -20.460938 13.25 -20.902344 13.394531 -21.246094 C 13.9375 -22.425781 14.964844 -23.75 16.4375 -25.269531 C 17.910156 -26.742188 19.726562 -28.265625 21.933594 -29.835938 Z M 21.933594 -29.835938 "/></g></g></g><g fill="#ffc1b2" fill-opacity="0.302"><g transform="translate(146.630522, 200.213193)"><g><path d="M 31.109375 -38.910156 C 30.914062 -38.960938 30.71875 -39.011719 30.570312 -39.058594 L 30.277344 -39.058594 C 30.175781 -39.058594 30.128906 -39.011719 30.03125 -39.011719 C 29.6875 -38.960938 29.292969 -38.8125 28.851562 -38.570312 C 28.363281 -38.273438 27.722656 -37.882812 26.9375 -37.390625 C 24.339844 -35.722656 21.542969 -33.367188 18.5 -30.277344 C 15.457031 -27.183594 12.367188 -23.503906 9.226562 -19.234375 C 8.539062 -18.351562 8 -17.761719 7.605469 -17.566406 C 7.214844 -17.273438 6.574219 -17.125 5.644531 -17.074219 C 4.316406 -16.929688 3.386719 -16.632812 2.796875 -16.191406 C 2.207031 -15.75 2.109375 -15.261719 2.503906 -14.722656 C 2.648438 -14.523438 2.894531 -14.328125 3.191406 -14.132812 C 3.484375 -13.9375 3.828125 -13.835938 4.171875 -13.835938 C 4.464844 -13.835938 4.757812 -13.789062 4.957031 -13.789062 C 5.152344 -13.789062 5.347656 -13.738281 5.542969 -13.738281 C 5.542969 -13.640625 5.300781 -13.050781 4.808594 -11.972656 C 4.316406 -10.84375 3.730469 -9.570312 3.042969 -8.195312 C 2.355469 -6.820312 1.816406 -5.59375 1.375 -4.5625 C 0.882812 -3.484375 0.6875 -2.894531 0.6875 -2.796875 C 0.6875 -2.257812 1.03125 -2.453125 1.71875 -3.335938 C 2.355469 -4.21875 3.386719 -5.886719 4.757812 -8.390625 L 7.851562 -13.984375 C 9.863281 -14.277344 11.382812 -14.476562 12.414062 -14.671875 C 13.640625 -14.867188 14.820312 -15.0625 15.949219 -15.261719 C 17.027344 -15.457031 17.761719 -15.605469 18.105469 -15.703125 C 18.402344 -15.800781 18.644531 -15.847656 18.941406 -15.898438 C 19.234375 -15.898438 19.382812 -15.898438 19.480469 -15.847656 C 19.53125 -15.75 19.332031 -15.0625 18.890625 -13.789062 C 18.402344 -12.464844 17.8125 -10.894531 17.125 -9.125 C 15.605469 -5.398438 14.523438 -2.109375 13.835938 0.636719 C 13.152344 3.386719 12.808594 5.839844 12.808594 7.949219 C 12.808594 9.027344 12.855469 9.8125 12.953125 10.253906 C 13.003906 10.695312 13.101562 10.894531 13.296875 10.894531 L 13.347656 10.894531 C 13.445312 10.894531 13.984375 9.8125 14.917969 7.605469 C 15.847656 5.445312 16.878906 2.847656 18.058594 -0.195312 C 18.792969 -2.160156 19.628906 -4.316406 20.558594 -6.625 C 21.441406 -8.929688 22.328125 -11.089844 23.160156 -13.101562 C 23.601562 -14.179688 24.042969 -15.210938 24.4375 -16.191406 C 24.828125 -17.125 25.171875 -17.960938 25.46875 -18.644531 C 26.792969 -21.589844 27.921875 -24.140625 28.804688 -26.300781 C 29.6875 -28.410156 30.421875 -30.226562 31.011719 -31.699219 C 31.992188 -34.25 32.484375 -35.96875 32.484375 -36.949219 C 32.484375 -37 32.433594 -37.046875 32.433594 -37.097656 C 32.335938 -37.980469 31.894531 -38.617188 31.109375 -38.910156 Z M 13.9375 -22.425781 C 14.820312 -23.601562 15.800781 -24.730469 16.878906 -25.910156 C 17.910156 -27.039062 18.988281 -28.164062 20.070312 -29.246094 C 21.984375 -31.207031 23.796875 -32.828125 25.46875 -34.203125 C 27.136719 -35.527344 28.265625 -36.214844 28.949219 -36.3125 L 29 -36.3125 C 29.097656 -36.3125 29.195312 -36.3125 29.292969 -36.261719 C 29.34375 -36.214844 29.390625 -36.113281 29.441406 -36.015625 L 29.441406 -35.96875 C 29.441406 -35.820312 28.949219 -34.789062 28.066406 -32.875 C 27.183594 -30.914062 26.203125 -28.902344 25.171875 -26.742188 C 24.289062 -24.925781 23.457031 -23.308594 22.71875 -21.886719 C 21.984375 -20.414062 21.542969 -19.53125 21.34375 -19.285156 C 21.050781 -18.890625 20.609375 -18.644531 19.972656 -18.5 C 19.285156 -18.351562 17.960938 -18.203125 15.996094 -18.007812 C 14.722656 -17.859375 13.59375 -17.8125 12.609375 -17.8125 L 12.414062 -17.8125 C 11.53125 -17.8125 11.039062 -17.859375 10.992188 -18.007812 L 10.992188 -18.058594 C 10.941406 -18.203125 11.1875 -18.695312 11.726562 -19.480469 C 12.316406 -20.316406 13.050781 -21.296875 13.9375 -22.425781 Z M 13.9375 -22.425781 "/></g></g></g><g fill="#ffc1b2" fill-opacity="0.502"><g transform="translate(116.804027, 200.777641)"><g><path d="M 17.566406 -32.828125 C 18.15625 -34.789062 18.449219 -36.164062 18.546875 -37 C 18.597656 -37.785156 18.402344 -38.175781 17.960938 -38.175781 L 17.761719 -38.175781 C 17.371094 -38.078125 16.488281 -36.753906 15.113281 -34.203125 C 13.738281 -31.648438 12.265625 -28.558594 10.695312 -24.976562 C 9.8125 -23.011719 8.929688 -21.050781 8.097656 -18.988281 C 7.214844 -16.929688 6.429688 -14.917969 5.691406 -12.953125 C 5.59375 -12.660156 5.300781 -12.316406 4.808594 -11.921875 C 4.316406 -11.480469 3.777344 -11.140625 3.238281 -10.84375 C 2.648438 -10.5 2.0625 -10.15625 1.472656 -9.765625 C 0.835938 -9.324219 0.390625 -8.980469 0.0976562 -8.734375 C -0.390625 -8.242188 -0.734375 -7.898438 -0.980469 -7.703125 C 0.148438 -7.851562 1.03125 -7.949219 1.621094 -8.046875 C 2.746094 -8.195312 3.582031 -8.292969 4.171875 -8.390625 C 4.074219 -7.753906 3.972656 -7.261719 3.972656 -6.96875 C 3.875 -6.574219 3.777344 -5.9375 3.632812 -5.101562 C 3.433594 -4.21875 3.289062 -3.433594 3.191406 -2.648438 C 2.992188 -1.863281 2.894531 -0.980469 2.796875 -0.0507812 C 2.699219 0.933594 2.648438 1.667969 2.648438 2.207031 C 2.648438 3.089844 2.699219 3.582031 2.796875 3.679688 C 2.847656 3.875 2.992188 3.777344 3.289062 3.484375 C 3.53125 3.238281 4.074219 2.207031 4.859375 0.34375 C 5.644531 -1.472656 7.015625 -4.757812 8.980469 -9.519531 C 9.078125 -9.8125 9.421875 -10.15625 9.910156 -10.597656 C 10.402344 -11.039062 11.039062 -11.480469 11.726562 -11.972656 C 12.757812 -12.660156 13.835938 -13.296875 14.917969 -13.886719 C 15.949219 -14.476562 16.632812 -14.722656 16.976562 -14.621094 C 17.371094 -14.425781 17.910156 -13.691406 18.597656 -12.414062 C 19.285156 -11.039062 20.167969 -8.980469 21.246094 -6.183594 C 22.328125 -3.191406 23.308594 -0.882812 24.191406 0.6875 C 24.976562 2.257812 25.910156 3.582031 26.9375 4.5625 C 27.578125 5.25 28.019531 5.59375 28.3125 5.59375 C 28.410156 5.59375 28.460938 5.59375 28.507812 5.496094 C 28.707031 5.203125 28.507812 4.417969 28.019531 3.042969 C 27.773438 2.550781 27.429688 1.667969 27.039062 0.34375 C 26.546875 -0.933594 26.152344 -2.257812 25.761719 -3.632812 C 24.878906 -6.378906 24.09375 -8.539062 23.40625 -10.15625 C 22.71875 -11.726562 21.886719 -13.152344 20.953125 -14.476562 C 20.558594 -14.964844 20.265625 -15.40625 20.070312 -15.847656 C 19.773438 -16.242188 19.675781 -16.535156 19.675781 -16.632812 C 19.675781 -16.734375 20.019531 -17.074219 20.757812 -17.664062 C 21.492188 -18.253906 22.375 -18.941406 23.40625 -19.726562 C 28.164062 -23.257812 31.550781 -26.496094 33.613281 -29.492188 C 34.789062 -31.207031 35.378906 -32.679688 35.378906 -33.859375 C 35.378906 -34.691406 35.035156 -35.378906 34.398438 -35.917969 C 33.316406 -36.851562 31.550781 -36.949219 29.148438 -36.214844 C 26.695312 -35.429688 23.898438 -33.957031 20.757812 -31.699219 C 19.675781 -30.914062 18.792969 -30.324219 18.007812 -29.835938 C 17.222656 -29.34375 16.78125 -29.097656 16.734375 -29.195312 C 16.632812 -29.195312 16.683594 -29.589844 16.878906 -30.324219 C 17.027344 -31.011719 17.273438 -31.847656 17.566406 -32.828125 Z M 21.933594 -29.835938 C 23.796875 -31.109375 25.566406 -32.1875 27.28125 -32.972656 C 28.949219 -33.757812 30.324219 -34.203125 31.304688 -34.300781 L 31.550781 -34.300781 C 31.847656 -34.300781 32.140625 -34.25 32.386719 -34.152344 C 32.582031 -34.003906 32.730469 -33.757812 32.777344 -33.464844 C 32.777344 -32.53125 31.601562 -30.960938 29.292969 -28.707031 C 26.9375 -26.449219 23.898438 -23.945312 20.117188 -21.199219 C 19.089844 -20.414062 18.15625 -19.726562 17.320312 -19.234375 C 16.535156 -18.695312 16.046875 -18.449219 15.847656 -18.449219 L 15.800781 -18.449219 C 14.574219 -18.746094 13.738281 -18.84375 13.25 -18.644531 C 12.757812 -18.449219 12.464844 -18.449219 12.464844 -18.746094 L 12.464844 -18.792969 C 12.464844 -19.039062 12.5625 -19.429688 12.808594 -19.972656 C 13.050781 -20.460938 13.25 -20.902344 13.394531 -21.246094 C 13.9375 -22.425781 14.964844 -23.75 16.4375 -25.269531 C 17.910156 -26.742188 19.726562 -28.265625 21.933594 -29.835938 Z M 21.933594 -29.835938 "/></g></g></g><g fill="#ffc1b2" fill-opacity="0.502"><g transform="translate(147.960296, 200.777641)"><g><path d="M 31.109375 -38.910156 C 30.914062 -38.960938 30.71875 -39.011719 30.570312 -39.058594 L 30.277344 -39.058594 C 30.175781 -39.058594 30.128906 -39.011719 30.03125 -39.011719 C 29.6875 -38.960938 29.292969 -38.8125 28.851562 -38.570312 C 28.363281 -38.273438 27.722656 -37.882812 26.9375 -37.390625 C 24.339844 -35.722656 21.542969 -33.367188 18.5 -30.277344 C 15.457031 -27.183594 12.367188 -23.503906 9.226562 -19.234375 C 8.539062 -18.351562 8 -17.761719 7.605469 -17.566406 C 7.214844 -17.273438 6.574219 -17.125 5.644531 -17.074219 C 4.316406 -16.929688 3.386719 -16.632812 2.796875 -16.191406 C 2.207031 -15.75 2.109375 -15.261719 2.503906 -14.722656 C 2.648438 -14.523438 2.894531 -14.328125 3.191406 -14.132812 C 3.484375 -13.9375 3.828125 -13.835938 4.171875 -13.835938 C 4.464844 -13.835938 4.757812 -13.789062 4.957031 -13.789062 C 5.152344 -13.789062 5.347656 -13.738281 5.542969 -13.738281 C 5.542969 -13.640625 5.300781 -13.050781 4.808594 -11.972656 C 4.316406 -10.84375 3.730469 -9.570312 3.042969 -8.195312 C 2.355469 -6.820312 1.816406 -5.59375 1.375 -4.5625 C 0.882812 -3.484375 0.6875 -2.894531 0.6875 -2.796875 C 0.6875 -2.257812 1.03125 -2.453125 1.71875 -3.335938 C 2.355469 -4.21875 3.386719 -5.886719 4.757812 -8.390625 L 7.851562 -13.984375 C 9.863281 -14.277344 11.382812 -14.476562 12.414062 -14.671875 C 13.640625 -14.867188 14.820312 -15.0625 15.949219 -15.261719 C 17.027344 -15.457031 17.761719 -15.605469 18.105469 -15.703125 C 18.402344 -15.800781 18.644531 -15.847656 18.941406 -15.898438 C 19.234375 -15.898438 19.382812 -15.898438 19.480469 -15.847656 C 19.53125 -15.75 19.332031 -15.0625 18.890625 -13.789062 C 18.402344 -12.464844 17.8125 -10.894531 17.125 -9.125 C 15.605469 -5.398438 14.523438 -2.109375 13.835938 0.636719 C 13.152344 3.386719 12.808594 5.839844 12.808594 7.949219 C 12.808594 9.027344 12.855469 9.8125 12.953125 10.253906 C 13.003906 10.695312 13.101562 10.894531 13.296875 10.894531 L 13.347656 10.894531 C 13.445312 10.894531 13.984375 9.8125 14.917969 7.605469 C 15.847656 5.445312 16.878906 2.847656 18.058594 -0.195312 C 18.792969 -2.160156 19.628906 -4.316406 20.558594 -6.625 C 21.441406 -8.929688 22.328125 -11.089844 23.160156 -13.101562 C 23.601562 -14.179688 24.042969 -15.210938 24.4375 -16.191406 C 24.828125 -17.125 25.171875 -17.960938 25.46875 -18.644531 C 26.792969 -21.589844 27.921875 -24.140625 28.804688 -26.300781 C 29.6875 -28.410156 30.421875 -30.226562 31.011719 -31.699219 C 31.992188 -34.25 32.484375 -35.96875 32.484375 -36.949219 C 32.484375 -37 32.433594 -37.046875 32.433594 -37.097656 C 32.335938 -37.980469 31.894531 -38.617188 31.109375 -38.910156 Z M 13.9375 -22.425781 C 14.820312 -23.601562 15.800781 -24.730469 16.878906 -25.910156 C 17.910156 -27.039062 18.988281 -28.164062 20.070312 -29.246094 C 21.984375 -31.207031 23.796875 -32.828125 25.46875 -34.203125 C 27.136719 -35.527344 28.265625 -36.214844 28.949219 -36.3125 L 29 -36.3125 C 29.097656 -36.3125 29.195312 -36.3125 29.292969 -36.261719 C 29.34375 -36.214844 29.390625 -36.113281 29.441406 -36.015625 L 29.441406 -35.96875 C 29.441406 -35.820312 28.949219 -34.789062 28.066406 -32.875 C 27.183594 -30.914062 26.203125 -28.902344 25.171875 -26.742188 C 24.289062 -24.925781 23.457031 -23.308594 22.71875 -21.886719 C 21.984375 -20.414062 21.542969 -19.53125 21.34375 -19.285156 C 21.050781 -18.890625 20.609375 -18.644531 19.972656 -18.5 C 19.285156 -18.351562 17.960938 -18.203125 15.996094 -18.007812 C 14.722656 -17.859375 13.59375 -17.8125 12.609375 -17.8125 L 12.414062 -17.8125 C 11.53125 -17.8125 11.039062 -17.859375 10.992188 -18.007812 L 10.992188 -18.058594 C 10.941406 -18.203125 11.1875 -18.695312 11.726562 -19.480469 C 12.316406 -20.316406 13.050781 -21.296875 13.9375 -22.425781 Z M 13.9375 -22.425781 "/></g></g></g><g fill="#ff1616" fill-opacity="1"><g transform="translate(118.133801, 201.342105)"><g><path d="M 17.566406 -32.828125 C 18.15625 -34.789062 18.449219 -36.164062 18.546875 -37 C 18.597656 -37.785156 18.402344 -38.175781 17.960938 -38.175781 L 17.761719 -38.175781 C 17.371094 -38.078125 16.488281 -36.753906 15.113281 -34.203125 C 13.738281 -31.648438 12.265625 -28.558594 10.695312 -24.976562 C 9.8125 -23.011719 8.929688 -21.050781 8.097656 -18.988281 C 7.214844 -16.929688 6.429688 -14.917969 5.691406 -12.953125 C 5.59375 -12.660156 5.300781 -12.316406 4.808594 -11.921875 C 4.316406 -11.480469 3.777344 -11.140625 3.238281 -10.84375 C 2.648438 -10.5 2.0625 -10.15625 1.472656 -9.765625 C 0.835938 -9.324219 0.390625 -8.980469 0.0976562 -8.734375 C -0.390625 -8.242188 -0.734375 -7.898438 -0.980469 -7.703125 C 0.148438 -7.851562 1.03125 -7.949219 1.621094 -8.046875 C 2.746094 -8.195312 3.582031 -8.292969 4.171875 -8.390625 C 4.074219 -7.753906 3.972656 -7.261719 3.972656 -6.96875 C 3.875 -6.574219 3.777344 -5.9375 3.632812 -5.101562 C 3.433594 -4.21875 3.289062 -3.433594 3.191406 -2.648438 C 2.992188 -1.863281 2.894531 -0.980469 2.796875 -0.0507812 C 2.699219 0.933594 2.648438 1.667969 2.648438 2.207031 C 2.648438 3.089844 2.699219 3.582031 2.796875 3.679688 C 2.847656 3.875 2.992188 3.777344 3.289062 3.484375 C 3.53125 3.238281 4.074219 2.207031 4.859375 0.34375 C 5.644531 -1.472656 7.015625 -4.757812 8.980469 -9.519531 C 9.078125 -9.8125 9.421875 -10.15625 9.910156 -10.597656 C 10.402344 -11.039062 11.039062 -11.480469 11.726562 -11.972656 C 12.757812 -12.660156 13.835938 -13.296875 14.917969 -13.886719 C 15.949219 -14.476562 16.632812 -14.722656 16.976562 -14.621094 C 17.371094 -14.425781 17.910156 -13.691406 18.597656 -12.414062 C 19.285156 -11.039062 20.167969 -8.980469 21.246094 -6.183594 C 22.328125 -3.191406 23.308594 -0.882812 24.191406 0.6875 C 24.976562 2.257812 25.910156 3.582031 26.9375 4.5625 C 27.578125 5.25 28.019531 5.59375 28.3125 5.59375 C 28.410156 5.59375 28.460938 5.59375 28.507812 5.496094 C 28.707031 5.203125 28.507812 4.417969 28.019531 3.042969 C 27.773438 2.550781 27.429688 1.667969 27.039062 0.34375 C 26.546875 -0.933594 26.152344 -2.257812 25.761719 -3.632812 C 24.878906 -6.378906 24.09375 -8.539062 23.40625 -10.15625 C 22.71875 -11.726562 21.886719 -13.152344 20.953125 -14.476562 C 20.558594 -14.964844 20.265625 -15.40625 20.070312 -15.847656 C 19.773438 -16.242188 19.675781 -16.535156 19.675781 -16.632812 C 19.675781 -16.734375 20.019531 -17.074219 20.757812 -17.664062 C 21.492188 -18.253906 22.375 -18.941406 23.40625 -19.726562 C 28.164062 -23.257812 31.550781 -26.496094 33.613281 -29.492188 C 34.789062 -31.207031 35.378906 -32.679688 35.378906 -33.859375 C 35.378906 -34.691406 35.035156 -35.378906 34.398438 -35.917969 C 33.316406 -36.851562 31.550781 -36.949219 29.148438 -36.214844 C 26.695312 -35.429688 23.898438 -33.957031 20.757812 -31.699219 C 19.675781 -30.914062 18.792969 -30.324219 18.007812 -29.835938 C 17.222656 -29.34375 16.78125 -29.097656 16.734375 -29.195312 C 16.632812 -29.195312 16.683594 -29.589844 16.878906 -30.324219 C 17.027344 -31.011719 17.273438 -31.847656 17.566406 -32.828125 Z M 21.933594 -29.835938 C 23.796875 -31.109375 25.566406 -32.1875 27.28125 -32.972656 C 28.949219 -33.757812 30.324219 -34.203125 31.304688 -34.300781 L 31.550781 -34.300781 C 31.847656 -34.300781 32.140625 -34.25 32.386719 -34.152344 C 32.582031 -34.003906 32.730469 -33.757812 32.777344 -33.464844 C 32.777344 -32.53125 31.601562 -30.960938 29.292969 -28.707031 C 26.9375 -26.449219 23.898438 -23.945312 20.117188 -21.199219 C 19.089844 -20.414062 18.15625 -19.726562 17.320312 -19.234375 C 16.535156 -18.695312 16.046875 -18.449219 15.847656 -18.449219 L 15.800781 -18.449219 C 14.574219 -18.746094 13.738281 -18.84375 13.25 -18.644531 C 12.757812 -18.449219 12.464844 -18.449219 12.464844 -18.746094 L 12.464844 -18.792969 C 12.464844 -19.039062 12.5625 -19.429688 12.808594 -19.972656 C 13.050781 -20.460938 13.25 -20.902344 13.394531 -21.246094 C 13.9375 -22.425781 14.964844 -23.75 16.4375 -25.269531 C 17.910156 -26.742188 19.726562 -28.265625 21.933594 -29.835938 Z M 21.933594 -29.835938 "/></g></g></g><g fill="#ff1616" fill-opacity="1"><g transform="translate(149.290069, 201.342105)"><g><path d="M 31.109375 -38.910156 C 30.914062 -38.960938 30.71875 -39.011719 30.570312 -39.058594 L 30.277344 -39.058594 C 30.175781 -39.058594 30.128906 -39.011719 30.03125 -39.011719 C 29.6875 -38.960938 29.292969 -38.8125 28.851562 -38.570312 C 28.363281 -38.273438 27.722656 -37.882812 26.9375 -37.390625 C 24.339844 -35.722656 21.542969 -33.367188 18.5 -30.277344 C 15.457031 -27.183594 12.367188 -23.503906 9.226562 -19.234375 C 8.539062 -18.351562 8 -17.761719 7.605469 -17.566406 C 7.214844 -17.273438 6.574219 -17.125 5.644531 -17.074219 C 4.316406 -16.929688 3.386719 -16.632812 2.796875 -16.191406 C 2.207031 -15.75 2.109375 -15.261719 2.503906 -14.722656 C 2.648438 -14.523438 2.894531 -14.328125 3.191406 -14.132812 C 3.484375 -13.9375 3.828125 -13.835938 4.171875 -13.835938 C 4.464844 -13.835938 4.757812 -13.789062 4.957031 -13.789062 C 5.152344 -13.789062 5.347656 -13.738281 5.542969 -13.738281 C 5.542969 -13.640625 5.300781 -13.050781 4.808594 -11.972656 C 4.316406 -10.84375 3.730469 -9.570312 3.042969 -8.195312 C 2.355469 -6.820312 1.816406 -5.59375 1.375 -4.5625 C 0.882812 -3.484375 0.6875 -2.894531 0.6875 -2.796875 C 0.6875 -2.257812 1.03125 -2.453125 1.71875 -3.335938 C 2.355469 -4.21875 3.386719 -5.886719 4.757812 -8.390625 L 7.851562 -13.984375 C 9.863281 -14.277344 11.382812 -14.476562 12.414062 -14.671875 C 13.640625 -14.867188 14.820312 -15.0625 15.949219 -15.261719 C 17.027344 -15.457031 17.761719 -15.605469 18.105469 -15.703125 C 18.402344 -15.800781 18.644531 -15.847656 18.941406 -15.898438 C 19.234375 -15.898438 19.382812 -15.898438 19.480469 -15.847656 C 19.53125 -15.75 19.332031 -15.0625 18.890625 -13.789062 C 18.402344 -12.464844 17.8125 -10.894531 17.125 -9.125 C 15.605469 -5.398438 14.523438 -2.109375 13.835938 0.636719 C 13.152344 3.386719 12.808594 5.839844 12.808594 7.949219 C 12.808594 9.027344 12.855469 9.8125 12.953125 10.253906 C 13.003906 10.695312 13.101562 10.894531 13.296875 10.894531 L 13.347656 10.894531 C 13.445312 10.894531 13.984375 9.8125 14.917969 7.605469 C 15.847656 5.445312 16.878906 2.847656 18.058594 -0.195312 C 18.792969 -2.160156 19.628906 -4.316406 20.558594 -6.625 C 21.441406 -8.929688 22.328125 -11.089844 23.160156 -13.101562 C 23.601562 -14.179688 24.042969 -15.210938 24.4375 -16.191406 C 24.828125 -17.125 25.171875 -17.960938 25.46875 -18.644531 C 26.792969 -21.589844 27.921875 -24.140625 28.804688 -26.300781 C 29.6875 -28.410156 30.421875 -30.226562 31.011719 -31.699219 C 31.992188 -34.25 32.484375 -35.96875 32.484375 -36.949219 C 32.484375 -37 32.433594 -37.046875 32.433594 -37.097656 C 32.335938 -37.980469 31.894531 -38.617188 31.109375 -38.910156 Z M 13.9375 -22.425781 C 14.820312 -23.601562 15.800781 -24.730469 16.878906 -25.910156 C 17.910156 -27.039062 18.988281 -28.164062 20.070312 -29.246094 C 21.984375 -31.207031 23.796875 -32.828125 25.46875 -34.203125 C 27.136719 -35.527344 28.265625 -36.214844 28.949219 -36.3125 L 29 -36.3125 C 29.097656 -36.3125 29.195312 -36.3125 29.292969 -36.261719 C 29.34375 -36.214844 29.390625 -36.113281 29.441406 -36.015625 L 29.441406 -35.96875 C 29.441406 -35.820312 28.949219 -34.789062 28.066406 -32.875 C 27.183594 -30.914062 26.203125 -28.902344 25.171875 -26.742188 C 24.289062 -24.925781 23.457031 -23.308594 22.71875 -21.886719 C 21.984375 -20.414062 21.542969 -19.53125 21.34375 -19.285156 C 21.050781 -18.890625 20.609375 -18.644531 19.972656 -18.5 C 19.285156 -18.351562 17.960938 -18.203125 15.996094 -18.007812 C 14.722656 -17.859375 13.59375 -17.8125 12.609375 -17.8125 L 12.414062 -17.8125 C 11.53125 -17.8125 11.039062 -17.859375 10.992188 -18.007812 L 10.992188 -18.058594 C 10.941406 -18.203125 11.1875 -18.695312 11.726562 -19.480469 C 12.316406 -20.316406 13.050781 -21.296875 13.9375 -22.425781 Z M 13.9375 -22.425781 "/></g></g></g><g fill="#ffc1b2" fill-opacity="0.302"><g transform="translate(170.756198, 200.213193)"><g><path d="M 0.246094 9.421875 C 0.246094 10.011719 0.292969 10.453125 0.390625 10.746094 C 0.441406 11.039062 0.539062 11.1875 0.6875 11.1875 L 0.734375 11.1875 C 0.835938 11.1875 1.472656 10.15625 2.601562 8 C 3.679688 5.886719 4.957031 3.335938 6.378906 0.390625 C 9.125 -5.347656 11.921875 -10.695312 14.671875 -15.703125 C 17.371094 -20.65625 20.460938 -25.957031 23.945312 -31.601562 C 26.203125 -35.28125 27.527344 -37.734375 27.96875 -39.011719 C 28.066406 -39.351562 28.117188 -39.648438 28.117188 -39.941406 C 28.117188 -40.628906 27.773438 -41.023438 27.039062 -41.167969 L 26.792969 -41.167969 C 26.496094 -41.167969 26.203125 -41.070312 25.957031 -40.972656 C 25.566406 -40.777344 24.78125 -40.136719 23.503906 -39.058594 C 22.914062 -38.570312 22.277344 -37.980469 21.542969 -37.292969 C 20.757812 -36.554688 19.824219 -35.722656 18.792969 -34.789062 C 15.800781 -32.042969 13.347656 -30.03125 11.382812 -28.707031 C 9.421875 -27.332031 7.898438 -26.59375 6.871094 -26.59375 C 6.476562 -26.546875 6.183594 -26.59375 5.9375 -26.792969 C 5.691406 -26.9375 5.496094 -27.183594 5.347656 -27.480469 C 4.859375 -28.363281 4.660156 -29.539062 4.757812 -31.109375 C 4.859375 -32.632812 5.003906 -33.808594 5.101562 -34.691406 C 5.445312 -37.929688 5.445312 -39.550781 5.054688 -39.597656 C 4.660156 -39.597656 3.925781 -38.027344 2.945312 -34.886719 C 2.355469 -33.023438 2.0625 -31.0625 1.960938 -28.902344 C 1.863281 -26.742188 2.40625 -25.125 3.679688 -24.140625 C 4.859375 -23.160156 6.230469 -22.914062 7.898438 -23.40625 C 9.570312 -23.796875 11.777344 -25.023438 14.574219 -26.988281 C 15.507812 -27.625 16.339844 -28.164062 17.074219 -28.605469 C 17.761719 -29 18.105469 -29.195312 18.15625 -29.097656 C 18.15625 -29 17.960938 -28.605469 17.566406 -27.871094 C 17.175781 -27.136719 16.683594 -26.300781 16.191406 -25.417969 C 12.953125 -20.019531 10.207031 -15.015625 7.851562 -10.402344 C 5.496094 -5.789062 3.632812 -1.863281 2.355469 1.421875 C 1.667969 3.238281 1.128906 4.808594 0.785156 6.132812 C 0.390625 7.507812 0.246094 8.585938 0.246094 9.371094 Z M 0.246094 9.421875 "/></g></g></g><g fill="#ffc1b2" fill-opacity="0.502"><g transform="translate(172.085972, 200.777641)"><g><path d="M 0.246094 9.421875 C 0.246094 10.011719 0.292969 10.453125 0.390625 10.746094 C 0.441406 11.039062 0.539062 11.1875 0.6875 11.1875 L 0.734375 11.1875 C 0.835938 11.1875 1.472656 10.15625 2.601562 8 C 3.679688 5.886719 4.957031 3.335938 6.378906 0.390625 C 9.125 -5.347656 11.921875 -10.695312 14.671875 -15.703125 C 17.371094 -20.65625 20.460938 -25.957031 23.945312 -31.601562 C 26.203125 -35.28125 27.527344 -37.734375 27.96875 -39.011719 C 28.066406 -39.351562 28.117188 -39.648438 28.117188 -39.941406 C 28.117188 -40.628906 27.773438 -41.023438 27.039062 -41.167969 L 26.792969 -41.167969 C 26.496094 -41.167969 26.203125 -41.070312 25.957031 -40.972656 C 25.566406 -40.777344 24.78125 -40.136719 23.503906 -39.058594 C 22.914062 -38.570312 22.277344 -37.980469 21.542969 -37.292969 C 20.757812 -36.554688 19.824219 -35.722656 18.792969 -34.789062 C 15.800781 -32.042969 13.347656 -30.03125 11.382812 -28.707031 C 9.421875 -27.332031 7.898438 -26.59375 6.871094 -26.59375 C 6.476562 -26.546875 6.183594 -26.59375 5.9375 -26.792969 C 5.691406 -26.9375 5.496094 -27.183594 5.347656 -27.480469 C 4.859375 -28.363281 4.660156 -29.539062 4.757812 -31.109375 C 4.859375 -32.632812 5.003906 -33.808594 5.101562 -34.691406 C 5.445312 -37.929688 5.445312 -39.550781 5.054688 -39.597656 C 4.660156 -39.597656 3.925781 -38.027344 2.945312 -34.886719 C 2.355469 -33.023438 2.0625 -31.0625 1.960938 -28.902344 C 1.863281 -26.742188 2.40625 -25.125 3.679688 -24.140625 C 4.859375 -23.160156 6.230469 -22.914062 7.898438 -23.40625 C 9.570312 -23.796875 11.777344 -25.023438 14.574219 -26.988281 C 15.507812 -27.625 16.339844 -28.164062 17.074219 -28.605469 C 17.761719 -29 18.105469 -29.195312 18.15625 -29.097656 C 18.15625 -29 17.960938 -28.605469 17.566406 -27.871094 C 17.175781 -27.136719 16.683594 -26.300781 16.191406 -25.417969 C 12.953125 -20.019531 10.207031 -15.015625 7.851562 -10.402344 C 5.496094 -5.789062 3.632812 -1.863281 2.355469 1.421875 C 1.667969 3.238281 1.128906 4.808594 0.785156 6.132812 C 0.390625 7.507812 0.246094 8.585938 0.246094 9.371094 Z M 0.246094 9.421875 "/></g></g></g><g fill="#38b6ff" fill-opacity="1"><g transform="translate(173.415746, 201.342105)"><g><path d="M 0.246094 9.421875 C 0.246094 10.011719 0.292969 10.453125 0.390625 10.746094 C 0.441406 11.039062 0.539062 11.1875 0.6875 11.1875 L 0.734375 11.1875 C 0.835938 11.1875 1.472656 10.15625 2.601562 8 C 3.679688 5.886719 4.957031 3.335938 6.378906 0.390625 C 9.125 -5.347656 11.921875 -10.695312 14.671875 -15.703125 C 17.371094 -20.65625 20.460938 -25.957031 23.945312 -31.601562 C 26.203125 -35.28125 27.527344 -37.734375 27.96875 -39.011719 C 28.066406 -39.351562 28.117188 -39.648438 28.117188 -39.941406 C 28.117188 -40.628906 27.773438 -41.023438 27.039062 -41.167969 L 26.792969 -41.167969 C 26.496094 -41.167969 26.203125 -41.070312 25.957031 -40.972656 C 25.566406 -40.777344 24.78125 -40.136719 23.503906 -39.058594 C 22.914062 -38.570312 22.277344 -37.980469 21.542969 -37.292969 C 20.757812 -36.554688 19.824219 -35.722656 18.792969 -34.789062 C 15.800781 -32.042969 13.347656 -30.03125 11.382812 -28.707031 C 9.421875 -27.332031 7.898438 -26.59375 6.871094 -26.59375 C 6.476562 -26.546875 6.183594 -26.59375 5.9375 -26.792969 C 5.691406 -26.9375 5.496094 -27.183594 5.347656 -27.480469 C 4.859375 -28.363281 4.660156 -29.539062 4.757812 -31.109375 C 4.859375 -32.632812 5.003906 -33.808594 5.101562 -34.691406 C 5.445312 -37.929688 5.445312 -39.550781 5.054688 -39.597656 C 4.660156 -39.597656 3.925781 -38.027344 2.945312 -34.886719 C 2.355469 -33.023438 2.0625 -31.0625 1.960938 -28.902344 C 1.863281 -26.742188 2.40625 -25.125 3.679688 -24.140625 C 4.859375 -23.160156 6.230469 -22.914062 7.898438 -23.40625 C 9.570312 -23.796875 11.777344 -25.023438 14.574219 -26.988281 C 15.507812 -27.625 16.339844 -28.164062 17.074219 -28.605469 C 17.761719 -29 18.105469 -29.195312 18.15625 -29.097656 C 18.15625 -29 17.960938 -28.605469 17.566406 -27.871094 C 17.175781 -27.136719 16.683594 -26.300781 16.191406 -25.417969 C 12.953125 -20.019531 10.207031 -15.015625 7.851562 -10.402344 C 5.496094 -5.789062 3.632812 -1.863281 2.355469 1.421875 C 1.667969 3.238281 1.128906 4.808594 0.785156 6.132812 C 0.390625 7.507812 0.246094 8.585938 0.246094 9.371094 Z M 0.246094 9.421875 "/></g></g></g><g fill="#ffc1b2" fill-opacity="0.302"><g transform="translate(193.855227, 200.213193)"><g><path d="M 17.910156 7.015625 C 17.859375 7.703125 17.859375 8.195312 17.960938 8.539062 C 18.058594 8.882812 18.15625 9.027344 18.304688 9.027344 C 18.402344 9.027344 18.792969 8.242188 19.480469 6.625 C 20.117188 5.054688 20.855469 3.140625 21.6875 0.933594 C 22.375 -1.03125 23.011719 -2.796875 23.601562 -4.464844 C 24.191406 -6.085938 24.78125 -7.65625 25.367188 -9.125 C 26.449219 -11.875 27.527344 -14.523438 28.707031 -17.175781 C 29.835938 -19.773438 31.257812 -22.867188 32.972656 -26.449219 C 33.757812 -28.164062 34.496094 -29.6875 35.085938 -30.960938 C 35.625 -32.1875 36.066406 -33.269531 36.410156 -34.152344 C 36.898438 -35.429688 37.144531 -36.359375 37.144531 -36.949219 C 37.144531 -37.097656 37.097656 -37.242188 37.097656 -37.339844 C 36.898438 -37.832031 36.410156 -38.078125 35.625 -38.078125 C 35.085938 -38.027344 34.496094 -37.785156 33.859375 -37.339844 C 33.171875 -36.851562 32.042969 -35.722656 30.472656 -34.003906 C 29.589844 -33.074219 28.558594 -31.894531 27.378906 -30.519531 C 26.152344 -29.148438 24.730469 -27.429688 23.0625 -25.46875 C 17.566406 -19.136719 13.492188 -14.621094 10.796875 -11.972656 C 8.046875 -9.273438 6.378906 -8.097656 5.691406 -8.441406 C 5.003906 -8.734375 4.90625 -10.207031 5.300781 -12.855469 C 5.644531 -15.507812 6.378906 -18.597656 7.507812 -22.226562 C 8.097656 -24.09375 8.734375 -26.054688 9.519531 -28.117188 C 10.304688 -30.128906 11.089844 -32.089844 11.972656 -34.003906 C 12.464844 -35.085938 12.90625 -36.066406 13.199219 -36.949219 C 13.492188 -37.785156 13.542969 -38.273438 13.445312 -38.371094 L 13.347656 -38.371094 C 13.101562 -38.371094 12.660156 -37.980469 12.070312 -37.195312 C 11.382812 -36.214844 10.597656 -34.988281 9.714844 -33.515625 C 9.226562 -32.730469 8.734375 -31.847656 8.242188 -30.960938 C 7.753906 -30.03125 7.261719 -29.097656 6.820312 -28.164062 C 3.777344 -21.984375 1.960938 -16.683594 1.277344 -12.367188 C 1.078125 -11.140625 0.980469 -10.058594 0.980469 -9.125 C 0.980469 -6.671875 1.621094 -5.054688 2.894531 -4.269531 C 4.90625 -2.992188 7.3125 -3.335938 10.15625 -5.300781 C 12.90625 -7.164062 16.78125 -11.089844 21.738281 -17.074219 C 23.210938 -18.84375 24.484375 -20.265625 25.515625 -21.34375 C 26.496094 -22.425781 26.988281 -22.867188 26.9375 -22.621094 C 26.839844 -22.328125 26.59375 -21.589844 26.105469 -20.363281 C 25.613281 -19.089844 25.023438 -17.664062 24.386719 -16.191406 C 22.375 -11.433594 20.804688 -7.066406 19.675781 -3.042969 C 18.546875 0.980469 17.960938 4.367188 17.910156 7.015625 Z M 17.910156 7.015625 "/></g></g></g><g fill="#ffc1b2" fill-opacity="0.302"><g transform="translate(224.030196, 200.213193)"><g><path d="M 6.527344 -0.195312 C 7.703125 0.195312 8.929688 0.34375 10.207031 0.34375 C 12.070312 0.34375 14.082031 0 16.289062 -0.734375 C 19.921875 -2.011719 23.308594 -4.121094 26.449219 -7.066406 C 28.753906 -9.175781 30.175781 -11.140625 30.765625 -13.003906 C 30.960938 -13.59375 31.0625 -14.132812 31.0625 -14.671875 C 31.0625 -15.75 30.621094 -16.683594 29.835938 -17.519531 C 28.949219 -18.402344 27.773438 -18.988281 26.398438 -19.285156 C 24.925781 -19.578125 22.523438 -19.726562 19.089844 -19.726562 C 17.417969 -19.726562 15.898438 -19.773438 14.523438 -19.871094 C 13.152344 -19.972656 12.367188 -20.070312 12.167969 -20.167969 C 11.1875 -20.65625 11.089844 -21.640625 11.777344 -23.0625 C 12.464844 -24.4375 13.9375 -26.203125 16.191406 -28.3125 C 17.371094 -29.390625 18.644531 -30.472656 20.117188 -31.550781 C 21.492188 -32.53125 22.816406 -33.367188 24.042969 -34.003906 C 24.632812 -34.347656 25.222656 -34.644531 25.710938 -34.839844 C 26.203125 -35.035156 26.644531 -35.132812 26.988281 -35.132812 C 27.527344 -35.132812 27.378906 -34.691406 26.59375 -33.90625 C 25.761719 -33.121094 24.582031 -32.238281 23.113281 -31.304688 C 21.738281 -30.472656 20.902344 -29.785156 20.558594 -29.292969 C 20.167969 -28.804688 20.214844 -28.410156 20.757812 -28.214844 C 21.148438 -28.066406 22.082031 -28.410156 23.457031 -29.195312 C 24.78125 -29.980469 26.105469 -30.914062 27.429688 -31.992188 C 28.3125 -32.679688 29.050781 -33.316406 29.6875 -34.003906 C 30.324219 -34.59375 30.71875 -35.132812 30.863281 -35.574219 C 31.109375 -36.359375 31.011719 -37 30.519531 -37.488281 C 30.03125 -37.929688 29.195312 -38.175781 28.117188 -38.175781 C 26.351562 -38.175781 24.191406 -37.441406 21.589844 -36.015625 C 18.988281 -34.59375 16.585938 -32.925781 14.378906 -30.960938 C 13.152344 -29.882812 12.070312 -28.753906 11.140625 -27.675781 C 10.15625 -26.496094 9.421875 -25.417969 8.929688 -24.4375 C 8.195312 -23.011719 7.851562 -21.886719 7.851562 -21 C 7.851562 -20.117188 8.195312 -19.285156 8.929688 -18.449219 C 9.714844 -17.519531 10.746094 -16.929688 12.121094 -16.632812 C 13.445312 -16.339844 15.898438 -16.242188 19.480469 -16.242188 C 22.128906 -16.242188 23.898438 -16.191406 24.78125 -16.09375 C 25.613281 -15.996094 26.253906 -15.75 26.695312 -15.40625 C 27.28125 -14.917969 27.480469 -14.378906 27.234375 -13.789062 C 26.9375 -13.199219 26.054688 -12.21875 24.582031 -10.894531 C 23.308594 -9.714844 21.640625 -8.636719 19.675781 -7.65625 C 17.714844 -6.625 15.75 -5.886719 13.835938 -5.398438 C 11.921875 -4.90625 9.910156 -4.710938 7.753906 -4.859375 C 5.542969 -4.957031 4.023438 -5.300781 3.140625 -5.988281 C 2.257812 -6.574219 1.71875 -6.917969 1.519531 -6.917969 C 1.324219 -6.917969 1.226562 -6.671875 1.226562 -6.085938 C 1.226562 -4.90625 1.71875 -3.777344 2.796875 -2.601562 C 3.828125 -1.421875 5.054688 -0.589844 6.527344 -0.195312 Z M 6.527344 -0.195312 "/></g></g></g><g fill="#ffc1b2" fill-opacity="0.502"><g transform="translate(195.185, 200.777641)"><g><path d="M 17.910156 7.015625 C 17.859375 7.703125 17.859375 8.195312 17.960938 8.539062 C 18.058594 8.882812 18.15625 9.027344 18.304688 9.027344 C 18.402344 9.027344 18.792969 8.242188 19.480469 6.625 C 20.117188 5.054688 20.855469 3.140625 21.6875 0.933594 C 22.375 -1.03125 23.011719 -2.796875 23.601562 -4.464844 C 24.191406 -6.085938 24.78125 -7.65625 25.367188 -9.125 C 26.449219 -11.875 27.527344 -14.523438 28.707031 -17.175781 C 29.835938 -19.773438 31.257812 -22.867188 32.972656 -26.449219 C 33.757812 -28.164062 34.496094 -29.6875 35.085938 -30.960938 C 35.625 -32.1875 36.066406 -33.269531 36.410156 -34.152344 C 36.898438 -35.429688 37.144531 -36.359375 37.144531 -36.949219 C 37.144531 -37.097656 37.097656 -37.242188 37.097656 -37.339844 C 36.898438 -37.832031 36.410156 -38.078125 35.625 -38.078125 C 35.085938 -38.027344 34.496094 -37.785156 33.859375 -37.339844 C 33.171875 -36.851562 32.042969 -35.722656 30.472656 -34.003906 C 29.589844 -33.074219 28.558594 -31.894531 27.378906 -30.519531 C 26.152344 -29.148438 24.730469 -27.429688 23.0625 -25.46875 C 17.566406 -19.136719 13.492188 -14.621094 10.796875 -11.972656 C 8.046875 -9.273438 6.378906 -8.097656 5.691406 -8.441406 C 5.003906 -8.734375 4.90625 -10.207031 5.300781 -12.855469 C 5.644531 -15.507812 6.378906 -18.597656 7.507812 -22.226562 C 8.097656 -24.09375 8.734375 -26.054688 9.519531 -28.117188 C 10.304688 -30.128906 11.089844 -32.089844 11.972656 -34.003906 C 12.464844 -35.085938 12.90625 -36.066406 13.199219 -36.949219 C 13.492188 -37.785156 13.542969 -38.273438 13.445312 -38.371094 L 13.347656 -38.371094 C 13.101562 -38.371094 12.660156 -37.980469 12.070312 -37.195312 C 11.382812 -36.214844 10.597656 -34.988281 9.714844 -33.515625 C 9.226562 -32.730469 8.734375 -31.847656 8.242188 -30.960938 C 7.753906 -30.03125 7.261719 -29.097656 6.820312 -28.164062 C 3.777344 -21.984375 1.960938 -16.683594 1.277344 -12.367188 C 1.078125 -11.140625 0.980469 -10.058594 0.980469 -9.125 C 0.980469 -6.671875 1.621094 -5.054688 2.894531 -4.269531 C 4.90625 -2.992188 7.3125 -3.335938 10.15625 -5.300781 C 12.90625 -7.164062 16.78125 -11.089844 21.738281 -17.074219 C 23.210938 -18.84375 24.484375 -20.265625 25.515625 -21.34375 C 26.496094 -22.425781 26.988281 -22.867188 26.9375 -22.621094 C 26.839844 -22.328125 26.59375 -21.589844 26.105469 -20.363281 C 25.613281 -19.089844 25.023438 -17.664062 24.386719 -16.191406 C 22.375 -11.433594 20.804688 -7.066406 19.675781 -3.042969 C 18.546875 0.980469 17.960938 4.367188 17.910156 7.015625 Z M 17.910156 7.015625 "/></g></g></g><g fill="#ffc1b2" fill-opacity="0.502"><g transform="translate(225.35997, 200.777641)"><g><path d="M 6.527344 -0.195312 C 7.703125 0.195312 8.929688 0.34375 10.207031 0.34375 C 12.070312 0.34375 14.082031 0 16.289062 -0.734375 C 19.921875 -2.011719 23.308594 -4.121094 26.449219 -7.066406 C 28.753906 -9.175781 30.175781 -11.140625 30.765625 -13.003906 C 30.960938 -13.59375 31.0625 -14.132812 31.0625 -14.671875 C 31.0625 -15.75 30.621094 -16.683594 29.835938 -17.519531 C 28.949219 -18.402344 27.773438 -18.988281 26.398438 -19.285156 C 24.925781 -19.578125 22.523438 -19.726562 19.089844 -19.726562 C 17.417969 -19.726562 15.898438 -19.773438 14.523438 -19.871094 C 13.152344 -19.972656 12.367188 -20.070312 12.167969 -20.167969 C 11.1875 -20.65625 11.089844 -21.640625 11.777344 -23.0625 C 12.464844 -24.4375 13.9375 -26.203125 16.191406 -28.3125 C 17.371094 -29.390625 18.644531 -30.472656 20.117188 -31.550781 C 21.492188 -32.53125 22.816406 -33.367188 24.042969 -34.003906 C 24.632812 -34.347656 25.222656 -34.644531 25.710938 -34.839844 C 26.203125 -35.035156 26.644531 -35.132812 26.988281 -35.132812 C 27.527344 -35.132812 27.378906 -34.691406 26.59375 -33.90625 C 25.761719 -33.121094 24.582031 -32.238281 23.113281 -31.304688 C 21.738281 -30.472656 20.902344 -29.785156 20.558594 -29.292969 C 20.167969 -28.804688 20.214844 -28.410156 20.757812 -28.214844 C 21.148438 -28.066406 22.082031 -28.410156 23.457031 -29.195312 C 24.78125 -29.980469 26.105469 -30.914062 27.429688 -31.992188 C 28.3125 -32.679688 29.050781 -33.316406 29.6875 -34.003906 C 30.324219 -34.59375 30.71875 -35.132812 30.863281 -35.574219 C 31.109375 -36.359375 31.011719 -37 30.519531 -37.488281 C 30.03125 -37.929688 29.195312 -38.175781 28.117188 -38.175781 C 26.351562 -38.175781 24.191406 -37.441406 21.589844 -36.015625 C 18.988281 -34.59375 16.585938 -32.925781 14.378906 -30.960938 C 13.152344 -29.882812 12.070312 -28.753906 11.140625 -27.675781 C 10.15625 -26.496094 9.421875 -25.417969 8.929688 -24.4375 C 8.195312 -23.011719 7.851562 -21.886719 7.851562 -21 C 7.851562 -20.117188 8.195312 -19.285156 8.929688 -18.449219 C 9.714844 -17.519531 10.746094 -16.929688 12.121094 -16.632812 C 13.445312 -16.339844 15.898438 -16.242188 19.480469 -16.242188 C 22.128906 -16.242188 23.898438 -16.191406 24.78125 -16.09375 C 25.613281 -15.996094 26.253906 -15.75 26.695312 -15.40625 C 27.28125 -14.917969 27.480469 -14.378906 27.234375 -13.789062 C 26.9375 -13.199219 26.054688 -12.21875 24.582031 -10.894531 C 23.308594 -9.714844 21.640625 -8.636719 19.675781 -7.65625 C 17.714844 -6.625 15.75 -5.886719 13.835938 -5.398438 C 11.921875 -4.90625 9.910156 -4.710938 7.753906 -4.859375 C 5.542969 -4.957031 4.023438 -5.300781 3.140625 -5.988281 C 2.257812 -6.574219 1.71875 -6.917969 1.519531 -6.917969 C 1.324219 -6.917969 1.226562 -6.671875 1.226562 -6.085938 C 1.226562 -4.90625 1.71875 -3.777344 2.796875 -2.601562 C 3.828125 -1.421875 5.054688 -0.589844 6.527344 -0.195312 Z M 6.527344 -0.195312 "/></g></g></g><g fill="#ff1616" fill-opacity="1"><g transform="translate(196.514774, 201.342105)"><g><path d="M 17.910156 7.015625 C 17.859375 7.703125 17.859375 8.195312 17.960938 8.539062 C 18.058594 8.882812 18.15625 9.027344 18.304688 9.027344 C 18.402344 9.027344 18.792969 8.242188 19.480469 6.625 C 20.117188 5.054688 20.855469 3.140625 21.6875 0.933594 C 22.375 -1.03125 23.011719 -2.796875 23.601562 -4.464844 C 24.191406 -6.085938 24.78125 -7.65625 25.367188 -9.125 C 26.449219 -11.875 27.527344 -14.523438 28.707031 -17.175781 C 29.835938 -19.773438 31.257812 -22.867188 32.972656 -26.449219 C 33.757812 -28.164062 34.496094 -29.6875 35.085938 -30.960938 C 35.625 -32.1875 36.066406 -33.269531 36.410156 -34.152344 C 36.898438 -35.429688 37.144531 -36.359375 37.144531 -36.949219 C 37.144531 -37.097656 37.097656 -37.242188 37.097656 -37.339844 C 36.898438 -37.832031 36.410156 -38.078125 35.625 -38.078125 C 35.085938 -38.027344 34.496094 -37.785156 33.859375 -37.339844 C 33.171875 -36.851562 32.042969 -35.722656 30.472656 -34.003906 C 29.589844 -33.074219 28.558594 -31.894531 27.378906 -30.519531 C 26.152344 -29.148438 24.730469 -27.429688 23.0625 -25.46875 C 17.566406 -19.136719 13.492188 -14.621094 10.796875 -11.972656 C 8.046875 -9.273438 6.378906 -8.097656 5.691406 -8.441406 C 5.003906 -8.734375 4.90625 -10.207031 5.300781 -12.855469 C 5.644531 -15.507812 6.378906 -18.597656 7.507812 -22.226562 C 8.097656 -24.09375 8.734375 -26.054688 9.519531 -28.117188 C 10.304688 -30.128906 11.089844 -32.089844 11.972656 -34.003906 C 12.464844 -35.085938 12.90625 -36.066406 13.199219 -36.949219 C 13.492188 -37.785156 13.542969 -38.273438 13.445312 -38.371094 L 13.347656 -38.371094 C 13.101562 -38.371094 12.660156 -37.980469 12.070312 -37.195312 C 11.382812 -36.214844 10.597656 -34.988281 9.714844 -33.515625 C 9.226562 -32.730469 8.734375 -31.847656 8.242188 -30.960938 C 7.753906 -30.03125 7.261719 -29.097656 6.820312 -28.164062 C 3.777344 -21.984375 1.960938 -16.683594 1.277344 -12.367188 C 1.078125 -11.140625 0.980469 -10.058594 0.980469 -9.125 C 0.980469 -6.671875 1.621094 -5.054688 2.894531 -4.269531 C 4.90625 -2.992188 7.3125 -3.335938 10.15625 -5.300781 C 12.90625 -7.164062 16.78125 -11.089844 21.738281 -17.074219 C 23.210938 -18.84375 24.484375 -20.265625 25.515625 -21.34375 C 26.496094 -22.425781 26.988281 -22.867188 26.9375 -22.621094 C 26.839844 -22.328125 26.59375 -21.589844 26.105469 -20.363281 C 25.613281 -19.089844 25.023438 -17.664062 24.386719 -16.191406 C 22.375 -11.433594 20.804688 -7.066406 19.675781 -3.042969 C 18.546875 0.980469 17.960938 4.367188 17.910156 7.015625 Z M 17.910156 7.015625 "/></g></g></g><g fill="#ff1616" fill-opacity="1"><g transform="translate(226.689744, 201.342105)"><g><path d="M 6.527344 -0.195312 C 7.703125 0.195312 8.929688 0.34375 10.207031 0.34375 C 12.070312 0.34375 14.082031 0 16.289062 -0.734375 C 19.921875 -2.011719 23.308594 -4.121094 26.449219 -7.066406 C 28.753906 -9.175781 30.175781 -11.140625 30.765625 -13.003906 C 30.960938 -13.59375 31.0625 -14.132812 31.0625 -14.671875 C 31.0625 -15.75 30.621094 -16.683594 29.835938 -17.519531 C 28.949219 -18.402344 27.773438 -18.988281 26.398438 -19.285156 C 24.925781 -19.578125 22.523438 -19.726562 19.089844 -19.726562 C 17.417969 -19.726562 15.898438 -19.773438 14.523438 -19.871094 C 13.152344 -19.972656 12.367188 -20.070312 12.167969 -20.167969 C 11.1875 -20.65625 11.089844 -21.640625 11.777344 -23.0625 C 12.464844 -24.4375 13.9375 -26.203125 16.191406 -28.3125 C 17.371094 -29.390625 18.644531 -30.472656 20.117188 -31.550781 C 21.492188 -32.53125 22.816406 -33.367188 24.042969 -34.003906 C 24.632812 -34.347656 25.222656 -34.644531 25.710938 -34.839844 C 26.203125 -35.035156 26.644531 -35.132812 26.988281 -35.132812 C 27.527344 -35.132812 27.378906 -34.691406 26.59375 -33.90625 C 25.761719 -33.121094 24.582031 -32.238281 23.113281 -31.304688 C 21.738281 -30.472656 20.902344 -29.785156 20.558594 -29.292969 C 20.167969 -28.804688 20.214844 -28.410156 20.757812 -28.214844 C 21.148438 -28.066406 22.082031 -28.410156 23.457031 -29.195312 C 24.78125 -29.980469 26.105469 -30.914062 27.429688 -31.992188 C 28.3125 -32.679688 29.050781 -33.316406 29.6875 -34.003906 C 30.324219 -34.59375 30.71875 -35.132812 30.863281 -35.574219 C 31.109375 -36.359375 31.011719 -37 30.519531 -37.488281 C 30.03125 -37.929688 29.195312 -38.175781 28.117188 -38.175781 C 26.351562 -38.175781 24.191406 -37.441406 21.589844 -36.015625 C 18.988281 -34.59375 16.585938 -32.925781 14.378906 -30.960938 C 13.152344 -29.882812 12.070312 -28.753906 11.140625 -27.675781 C 10.15625 -26.496094 9.421875 -25.417969 8.929688 -24.4375 C 8.195312 -23.011719 7.851562 -21.886719 7.851562 -21 C 7.851562 -20.117188 8.195312 -19.285156 8.929688 -18.449219 C 9.714844 -17.519531 10.746094 -16.929688 12.121094 -16.632812 C 13.445312 -16.339844 15.898438 -16.242188 19.480469 -16.242188 C 22.128906 -16.242188 23.898438 -16.191406 24.78125 -16.09375 C 25.613281 -15.996094 26.253906 -15.75 26.695312 -15.40625 C 27.28125 -14.917969 27.480469 -14.378906 27.234375 -13.789062 C 26.9375 -13.199219 26.054688 -12.21875 24.582031 -10.894531 C 23.308594 -9.714844 21.640625 -8.636719 19.675781 -7.65625 C 17.714844 -6.625 15.75 -5.886719 13.835938 -5.398438 C 11.921875 -4.90625 9.910156 -4.710938 7.753906 -4.859375 C 5.542969 -4.957031 4.023438 -5.300781 3.140625 -5.988281 C 2.257812 -6.574219 1.71875 -6.917969 1.519531 -6.917969 C 1.324219 -6.917969 1.226562 -6.671875 1.226562 -6.085938 C 1.226562 -4.90625 1.71875 -3.777344 2.796875 -2.601562 C 3.828125 -1.421875 5.054688 -0.589844 6.527344 -0.195312 Z M 6.527344 -0.195312 "/></g></g></g><g fill="#ffc1b2" fill-opacity="0.302"><g transform="translate(256.209634, 200.213193)"><g><path d="M 2.503906 8.683594 C 2.601562 8.882812 2.746094 9.027344 2.894531 9.078125 C 2.894531 9.078125 2.945312 9.125 2.945312 9.125 C 3.042969 9.125 3.140625 9.078125 3.238281 8.980469 C 3.335938 8.882812 3.632812 8.046875 4.171875 6.527344 C 4.710938 5.003906 5.300781 3.238281 5.988281 1.226562 C 6.625 -0.785156 7.410156 -3.140625 8.339844 -5.789062 C 9.273438 -8.390625 10.058594 -10.550781 10.695312 -12.316406 C 11.039062 -13.25 11.335938 -14.082031 11.628906 -14.769531 C 11.875 -15.457031 12.121094 -16.046875 12.367188 -16.535156 C 12.757812 -17.417969 13.25 -18.058594 13.789062 -18.402344 C 14.277344 -18.746094 15.113281 -18.988281 16.242188 -19.089844 C 16.832031 -19.136719 17.519531 -19.1875 18.304688 -19.1875 C 19.089844 -19.1875 19.972656 -19.234375 21 -19.285156 C 22.769531 -19.382812 24.042969 -19.382812 24.828125 -19.332031 C 25.613281 -19.234375 26.007812 -19.136719 26.007812 -18.941406 C 26.007812 -18.792969 25.910156 -18.304688 25.664062 -17.417969 C 25.367188 -16.535156 25.074219 -15.554688 24.730469 -14.523438 C 24.289062 -13.296875 23.898438 -12.070312 23.554688 -10.84375 C 23.160156 -9.617188 22.867188 -8.441406 22.621094 -7.3125 C 22.128906 -5.152344 21.835938 -3.433594 21.738281 -2.0625 C 21.589844 -0.636719 21.738281 -0.0976562 22.179688 -0.441406 C 22.375 -0.589844 22.671875 -1.078125 23.160156 -1.914062 C 23.601562 -2.699219 24.140625 -3.777344 24.828125 -5.152344 C 26.007812 -7.605469 27.429688 -10.84375 29.097656 -14.769531 C 30.765625 -18.695312 32.484375 -22.867188 34.25 -27.28125 C 35.085938 -29.441406 35.96875 -31.601562 36.898438 -33.859375 C 37.785156 -36.066406 38.46875 -37.683594 38.910156 -38.714844 C 39.796875 -40.679688 40.238281 -42.101562 40.238281 -42.984375 C 40.238281 -43.769531 39.746094 -44.210938 38.863281 -44.210938 C 38.371094 -44.210938 37.882812 -43.867188 37.488281 -43.277344 C 37.046875 -42.640625 36.214844 -41.070312 34.988281 -38.519531 C 34.203125 -36.949219 33.316406 -35.035156 32.335938 -32.875 C 31.304688 -30.667969 30.472656 -28.804688 29.785156 -27.332031 C 28.707031 -24.878906 27.871094 -23.011719 27.378906 -21.835938 C 26.546875 -21.835938 25.957031 -21.886719 25.566406 -21.933594 C 25.023438 -21.933594 24.386719 -21.984375 23.601562 -22.082031 C 22.816406 -22.082031 22.082031 -22.128906 21.492188 -22.226562 C 20.855469 -22.226562 20.117188 -22.277344 19.332031 -22.277344 C 18.449219 -22.277344 17.761719 -22.226562 17.175781 -22.179688 C 16.339844 -22.082031 15.800781 -22.082031 15.507812 -22.179688 C 15.210938 -22.277344 15.0625 -22.425781 15.0625 -22.71875 C 15.015625 -22.867188 15.0625 -23.160156 15.210938 -23.601562 C 15.359375 -23.996094 15.554688 -24.535156 15.800781 -25.171875 C 16.242188 -26.351562 16.832031 -27.722656 17.566406 -29.292969 C 18.304688 -30.863281 19.039062 -32.289062 19.773438 -33.660156 C 20.460938 -34.988281 20.855469 -35.96875 20.902344 -36.65625 C 20.902344 -37.292969 20.609375 -37.585938 20.019531 -37.539062 C 19.773438 -37.488281 19.234375 -36.800781 18.351562 -35.527344 C 17.417969 -34.25 16.4375 -32.679688 15.359375 -30.914062 C 14.769531 -29.933594 14.179688 -28.902344 13.59375 -27.871094 C 13.003906 -26.839844 12.464844 -25.859375 11.972656 -24.878906 C 11.433594 -23.898438 10.894531 -23.0625 10.402344 -22.375 C 9.910156 -21.6875 9.519531 -21.296875 9.273438 -21.199219 C 8.980469 -21.101562 8.441406 -20.953125 7.65625 -20.707031 C 6.773438 -20.414062 5.886719 -20.167969 4.957031 -19.871094 C 3.191406 -19.332031 2.011719 -18.84375 1.324219 -18.402344 C 0.835938 -18.058594 0.636719 -17.761719 0.636719 -17.46875 C 0.636719 -17.273438 0.734375 -17.125 0.835938 -17.027344 C 0.933594 -16.832031 1.324219 -16.734375 1.914062 -16.78125 C 2.453125 -16.78125 3.335938 -16.929688 4.613281 -17.175781 C 5.542969 -17.320312 6.328125 -17.46875 7.015625 -17.566406 C 7.703125 -17.664062 8.046875 -17.664062 8.046875 -17.617188 C 8.046875 -17.566406 7.800781 -16.976562 7.410156 -15.847656 C 6.96875 -14.671875 6.476562 -13.296875 5.886719 -11.726562 C 5.25 -10.15625 4.660156 -8.488281 4.074219 -6.625 C 3.484375 -4.710938 3.042969 -3.238281 2.796875 -2.207031 C 2.503906 -0.933594 2.304688 0.441406 2.207031 1.914062 C 2.0625 3.386719 2.011719 4.710938 2.109375 5.886719 C 2.109375 6.574219 2.109375 7.113281 2.207031 7.605469 C 2.257812 8.097656 2.355469 8.441406 2.503906 8.683594 Z M 2.503906 8.683594 "/></g></g></g><g fill="#ffc1b2" fill-opacity="0.502"><g transform="translate(257.539408, 200.777641)"><g><path d="M 2.503906 8.683594 C 2.601562 8.882812 2.746094 9.027344 2.894531 9.078125 C 2.894531 9.078125 2.945312 9.125 2.945312 9.125 C 3.042969 9.125 3.140625 9.078125 3.238281 8.980469 C 3.335938 8.882812 3.632812 8.046875 4.171875 6.527344 C 4.710938 5.003906 5.300781 3.238281 5.988281 1.226562 C 6.625 -0.785156 7.410156 -3.140625 8.339844 -5.789062 C 9.273438 -8.390625 10.058594 -10.550781 10.695312 -12.316406 C 11.039062 -13.25 11.335938 -14.082031 11.628906 -14.769531 C 11.875 -15.457031 12.121094 -16.046875 12.367188 -16.535156 C 12.757812 -17.417969 13.25 -18.058594 13.789062 -18.402344 C 14.277344 -18.746094 15.113281 -18.988281 16.242188 -19.089844 C 16.832031 -19.136719 17.519531 -19.1875 18.304688 -19.1875 C 19.089844 -19.1875 19.972656 -19.234375 21 -19.285156 C 22.769531 -19.382812 24.042969 -19.382812 24.828125 -19.332031 C 25.613281 -19.234375 26.007812 -19.136719 26.007812 -18.941406 C 26.007812 -18.792969 25.910156 -18.304688 25.664062 -17.417969 C 25.367188 -16.535156 25.074219 -15.554688 24.730469 -14.523438 C 24.289062 -13.296875 23.898438 -12.070312 23.554688 -10.84375 C 23.160156 -9.617188 22.867188 -8.441406 22.621094 -7.3125 C 22.128906 -5.152344 21.835938 -3.433594 21.738281 -2.0625 C 21.589844 -0.636719 21.738281 -0.0976562 22.179688 -0.441406 C 22.375 -0.589844 22.671875 -1.078125 23.160156 -1.914062 C 23.601562 -2.699219 24.140625 -3.777344 24.828125 -5.152344 C 26.007812 -7.605469 27.429688 -10.84375 29.097656 -14.769531 C 30.765625 -18.695312 32.484375 -22.867188 34.25 -27.28125 C 35.085938 -29.441406 35.96875 -31.601562 36.898438 -33.859375 C 37.785156 -36.066406 38.46875 -37.683594 38.910156 -38.714844 C 39.796875 -40.679688 40.238281 -42.101562 40.238281 -42.984375 C 40.238281 -43.769531 39.746094 -44.210938 38.863281 -44.210938 C 38.371094 -44.210938 37.882812 -43.867188 37.488281 -43.277344 C 37.046875 -42.640625 36.214844 -41.070312 34.988281 -38.519531 C 34.203125 -36.949219 33.316406 -35.035156 32.335938 -32.875 C 31.304688 -30.667969 30.472656 -28.804688 29.785156 -27.332031 C 28.707031 -24.878906 27.871094 -23.011719 27.378906 -21.835938 C 26.546875 -21.835938 25.957031 -21.886719 25.566406 -21.933594 C 25.023438 -21.933594 24.386719 -21.984375 23.601562 -22.082031 C 22.816406 -22.082031 22.082031 -22.128906 21.492188 -22.226562 C 20.855469 -22.226562 20.117188 -22.277344 19.332031 -22.277344 C 18.449219 -22.277344 17.761719 -22.226562 17.175781 -22.179688 C 16.339844 -22.082031 15.800781 -22.082031 15.507812 -22.179688 C 15.210938 -22.277344 15.0625 -22.425781 15.0625 -22.71875 C 15.015625 -22.867188 15.0625 -23.160156 15.210938 -23.601562 C 15.359375 -23.996094 15.554688 -24.535156 15.800781 -25.171875 C 16.242188 -26.351562 16.832031 -27.722656 17.566406 -29.292969 C 18.304688 -30.863281 19.039062 -32.289062 19.773438 -33.660156 C 20.460938 -34.988281 20.855469 -35.96875 20.902344 -36.65625 C 20.902344 -37.292969 20.609375 -37.585938 20.019531 -37.539062 C 19.773438 -37.488281 19.234375 -36.800781 18.351562 -35.527344 C 17.417969 -34.25 16.4375 -32.679688 15.359375 -30.914062 C 14.769531 -29.933594 14.179688 -28.902344 13.59375 -27.871094 C 13.003906 -26.839844 12.464844 -25.859375 11.972656 -24.878906 C 11.433594 -23.898438 10.894531 -23.0625 10.402344 -22.375 C 9.910156 -21.6875 9.519531 -21.296875 9.273438 -21.199219 C 8.980469 -21.101562 8.441406 -20.953125 7.65625 -20.707031 C 6.773438 -20.414062 5.886719 -20.167969 4.957031 -19.871094 C 3.191406 -19.332031 2.011719 -18.84375 1.324219 -18.402344 C 0.835938 -18.058594 0.636719 -17.761719 0.636719 -17.46875 C 0.636719 -17.273438 0.734375 -17.125 0.835938 -17.027344 C 0.933594 -16.832031 1.324219 -16.734375 1.914062 -16.78125 C 2.453125 -16.78125 3.335938 -16.929688 4.613281 -17.175781 C 5.542969 -17.320312 6.328125 -17.46875 7.015625 -17.566406 C 7.703125 -17.664062 8.046875 -17.664062 8.046875 -17.617188 C 8.046875 -17.566406 7.800781 -16.976562 7.410156 -15.847656 C 6.96875 -14.671875 6.476562 -13.296875 5.886719 -11.726562 C 5.25 -10.15625 4.660156 -8.488281 4.074219 -6.625 C 3.484375 -4.710938 3.042969 -3.238281 2.796875 -2.207031 C 2.503906 -0.933594 2.304688 0.441406 2.207031 1.914062 C 2.0625 3.386719 2.011719 4.710938 2.109375 5.886719 C 2.109375 6.574219 2.109375 7.113281 2.207031 7.605469 C 2.257812 8.097656 2.355469 8.441406 2.503906 8.683594 Z M 2.503906 8.683594 "/></g></g></g><g fill="#ffde59" fill-opacity="1"><g transform="translate(258.869181, 201.342105)"><g><path d="M 2.503906 8.683594 C 2.601562 8.882812 2.746094 9.027344 2.894531 9.078125 C 2.894531 9.078125 2.945312 9.125 2.945312 9.125 C 3.042969 9.125 3.140625 9.078125 3.238281 8.980469 C 3.335938 8.882812 3.632812 8.046875 4.171875 6.527344 C 4.710938 5.003906 5.300781 3.238281 5.988281 1.226562 C 6.625 -0.785156 7.410156 -3.140625 8.339844 -5.789062 C 9.273438 -8.390625 10.058594 -10.550781 10.695312 -12.316406 C 11.039062 -13.25 11.335938 -14.082031 11.628906 -14.769531 C 11.875 -15.457031 12.121094 -16.046875 12.367188 -16.535156 C 12.757812 -17.417969 13.25 -18.058594 13.789062 -18.402344 C 14.277344 -18.746094 15.113281 -18.988281 16.242188 -19.089844 C 16.832031 -19.136719 17.519531 -19.1875 18.304688 -19.1875 C 19.089844 -19.1875 19.972656 -19.234375 21 -19.285156 C 22.769531 -19.382812 24.042969 -19.382812 24.828125 -19.332031 C 25.613281 -19.234375 26.007812 -19.136719 26.007812 -18.941406 C 26.007812 -18.792969 25.910156 -18.304688 25.664062 -17.417969 C 25.367188 -16.535156 25.074219 -15.554688 24.730469 -14.523438 C 24.289062 -13.296875 23.898438 -12.070312 23.554688 -10.84375 C 23.160156 -9.617188 22.867188 -8.441406 22.621094 -7.3125 C 22.128906 -5.152344 21.835938 -3.433594 21.738281 -2.0625 C 21.589844 -0.636719 21.738281 -0.0976562 22.179688 -0.441406 C 22.375 -0.589844 22.671875 -1.078125 23.160156 -1.914062 C 23.601562 -2.699219 24.140625 -3.777344 24.828125 -5.152344 C 26.007812 -7.605469 27.429688 -10.84375 29.097656 -14.769531 C 30.765625 -18.695312 32.484375 -22.867188 34.25 -27.28125 C 35.085938 -29.441406 35.96875 -31.601562 36.898438 -33.859375 C 37.785156 -36.066406 38.46875 -37.683594 38.910156 -38.714844 C 39.796875 -40.679688 40.238281 -42.101562 40.238281 -42.984375 C 40.238281 -43.769531 39.746094 -44.210938 38.863281 -44.210938 C 38.371094 -44.210938 37.882812 -43.867188 37.488281 -43.277344 C 37.046875 -42.640625 36.214844 -41.070312 34.988281 -38.519531 C 34.203125 -36.949219 33.316406 -35.035156 32.335938 -32.875 C 31.304688 -30.667969 30.472656 -28.804688 29.785156 -27.332031 C 28.707031 -24.878906 27.871094 -23.011719 27.378906 -21.835938 C 26.546875 -21.835938 25.957031 -21.886719 25.566406 -21.933594 C 25.023438 -21.933594 24.386719 -21.984375 23.601562 -22.082031 C 22.816406 -22.082031 22.082031 -22.128906 21.492188 -22.226562 C 20.855469 -22.226562 20.117188 -22.277344 19.332031 -22.277344 C 18.449219 -22.277344 17.761719 -22.226562 17.175781 -22.179688 C 16.339844 -22.082031 15.800781 -22.082031 15.507812 -22.179688 C 15.210938 -22.277344 15.0625 -22.425781 15.0625 -22.71875 C 15.015625 -22.867188 15.0625 -23.160156 15.210938 -23.601562 C 15.359375 -23.996094 15.554688 -24.535156 15.800781 -25.171875 C 16.242188 -26.351562 16.832031 -27.722656 17.566406 -29.292969 C 18.304688 -30.863281 19.039062 -32.289062 19.773438 -33.660156 C 20.460938 -34.988281 20.855469 -35.96875 20.902344 -36.65625 C 20.902344 -37.292969 20.609375 -37.585938 20.019531 -37.539062 C 19.773438 -37.488281 19.234375 -36.800781 18.351562 -35.527344 C 17.417969 -34.25 16.4375 -32.679688 15.359375 -30.914062 C 14.769531 -29.933594 14.179688 -28.902344 13.59375 -27.871094 C 13.003906 -26.839844 12.464844 -25.859375 11.972656 -24.878906 C 11.433594 -23.898438 10.894531 -23.0625 10.402344 -22.375 C 9.910156 -21.6875 9.519531 -21.296875 9.273438 -21.199219 C 8.980469 -21.101562 8.441406 -20.953125 7.65625 -20.707031 C 6.773438 -20.414062 5.886719 -20.167969 4.957031 -19.871094 C 3.191406 -19.332031 2.011719 -18.84375 1.324219 -18.402344 C 0.835938 -18.058594 0.636719 -17.761719 0.636719 -17.46875 C 0.636719 -17.273438 0.734375 -17.125 0.835938 -17.027344 C 0.933594 -16.832031 1.324219 -16.734375 1.914062 -16.78125 C 2.453125 -16.78125 3.335938 -16.929688 4.613281 -17.175781 C 5.542969 -17.320312 6.328125 -17.46875 7.015625 -17.566406 C 7.703125 -17.664062 8.046875 -17.664062 8.046875 -17.617188 C 8.046875 -17.566406 7.800781 -16.976562 7.410156 -15.847656 C 6.96875 -14.671875 6.476562 -13.296875 5.886719 -11.726562 C 5.25 -10.15625 4.660156 -8.488281 4.074219 -6.625 C 3.484375 -4.710938 3.042969 -3.238281 2.796875 -2.207031 C 2.503906 -0.933594 2.304688 0.441406 2.207031 1.914062 C 2.0625 3.386719 2.011719 4.710938 2.109375 5.886719 C 2.109375 6.574219 2.109375 7.113281 2.207031 7.605469 C 2.257812 8.097656 2.355469 8.441406 2.503906 8.683594 Z M 2.503906 8.683594 "/></g></g></g></svg>